# xmcd CD database file
#
# Track frame offsets:
#	150
#	26688
#	42336
#	60070
#	80940
#	123728
#	147780
#	163875
#	184565
#	206489
#	212032
#
# Disc length: 3130 seconds
#
# Revision: 3
# Processed by: cddbd v1.5.2PL0 Copyright (c) Steve Scherf et al.
# Submitted via: CDex 1.70beta2
#
DISCID=9c0c380b
DTITLE=Jerry Douglas, 1956- - The Best Kept Secret
DYEAR=2005
DGENRE=Bluegrass 2001-2010
TTITLE0=Jerry Douglas, Derek Jones  - She Makes Me Want To Sing (with Derek Trucks)
TTITLE1=Jerry Douglas - Who's Your Uncle? (with Sam Bush and Béla Fleck)
TTITLE2=Zane Grey, Len Ron Hanks - Back In Love Again (with Alison Krauss)
TTITLE3=Joe Zawinul - A Remark You Made
TTITLE4=Jerry Douglas - The Best Kept Secret
TTITLE5=Jerry Douglas - Li'l roro (with Bill Frisell)
TTITLE6=Bob Wills - Swing Blues no.1 (with John Fogerty)
TTITLE7=Gabe Witcher - Snow's First Fall
TTITLE8=Jerry Douglas - Ya ya etc.
TTITLE9=Jerry Douglas - U R My Flower
TTITLE10=Jerry Douglas - Sir Aly B
EXTD=YEAR: 2005
EXTT0=
EXTT1=
EXTT2=
EXTT3=
EXTT4=
EXTT5=
EXTT6=
EXTT7=
EXTT8=
EXTT9=
EXTT10=
PLAYORDER=
